<svg width="176" height="54" viewBox="0 0 176 54" fill="none" xmlns="http://www.w3.org/2000/svg">
<rect x="0.5" y="0.5" width="175" height="53" rx="19.5" stroke="#CDC3C3"/>
<path fill-rule="evenodd" clip-rule="evenodd" d="M50.7973 26.5064C50.8192 24.8099 51.7086 23.2429 53.1539 22.3543C52.2379 21.0462 50.7588 20.2466 49.1627 20.1966C47.4835 20.0204 45.8555 21.2015 44.9998 21.2015C44.1275 21.2015 42.81 20.2141 41.3913 20.2433C39.5246 20.3036 37.8266 21.3392 36.9184 22.9712C34.9844 26.3196 36.427 31.2407 38.2796 33.9473C39.2065 35.2726 40.2898 36.7531 41.7072 36.7006C43.0943 36.6431 43.6123 35.8161 45.2866 35.8161C46.9454 35.8161 47.4314 36.7006 48.8776 36.6672C50.366 36.643 51.3038 35.336 52.1981 33.9981C52.8641 33.0537 53.3766 32.01 53.7166 30.9056C51.9488 30.1579 50.7994 28.4257 50.7973 26.5064Z" fill="black"/>
<path fill-rule="evenodd" clip-rule="evenodd" d="M48.0657 18.4166C48.8772 17.4424 49.277 16.1903 49.1802 14.926C47.9404 15.0562 46.7951 15.6488 45.9726 16.5856C45.1605 17.5099 44.749 18.7192 44.8289 19.947C46.0854 19.96 47.2784 19.3959 48.0657 18.4166Z" fill="black"/>
<path d="M66.5854 19.706V14.72H68.0254C68.4214 14.72 68.7544 14.777 69.0244 14.891C69.2944 14.999 69.5134 15.161 69.6814 15.377C69.8554 15.587 69.9784 15.845 70.0504 16.151C70.1284 16.451 70.1674 16.793 70.1674 17.177C70.1674 17.573 70.1254 17.912 70.0414 18.194C69.9634 18.47 69.8614 18.701 69.7354 18.887C69.6094 19.073 69.4654 19.22 69.3034 19.328C69.1474 19.436 68.9884 19.52 68.8264 19.58C68.6644 19.634 68.5114 19.67 68.3674 19.688C68.2234 19.7 68.1034 19.706 68.0074 19.706H66.5854ZM65.7304 14V20.426H67.9354C68.4694 20.426 68.9314 20.351 69.3214 20.201C69.7114 20.051 70.0324 19.835 70.2844 19.553C70.5364 19.265 70.7224 18.914 70.8424 18.5C70.9624 18.08 71.0224 17.6 71.0224 17.06C71.0224 16.028 70.7554 15.26 70.2214 14.756C69.6874 14.252 68.9254 14 67.9354 14H65.7304Z" fill="#666666"/>
<path d="M72.6794 18.104C72.6794 17.822 72.7154 17.573 72.7874 17.357C72.8654 17.135 72.9704 16.949 73.1024 16.799C73.2344 16.649 73.3874 16.535 73.5614 16.457C73.7414 16.379 73.9304 16.34 74.1284 16.34C74.3264 16.34 74.5124 16.379 74.6864 16.457C74.8664 16.535 75.0224 16.649 75.1544 16.799C75.2864 16.949 75.3884 17.135 75.4604 17.357C75.5384 17.573 75.5774 17.822 75.5774 18.104C75.5774 18.386 75.5384 18.638 75.4604 18.86C75.3884 19.076 75.2864 19.259 75.1544 19.409C75.0224 19.553 74.8664 19.664 74.6864 19.742C74.5124 19.82 74.3264 19.859 74.1284 19.859C73.9304 19.859 73.7414 19.82 73.5614 19.742C73.3874 19.664 73.2344 19.553 73.1024 19.409C72.9704 19.259 72.8654 19.076 72.7874 18.86C72.7154 18.638 72.6794 18.386 72.6794 18.104ZM71.8694 18.104C71.8694 18.446 71.9174 18.764 72.0134 19.058C72.1094 19.352 72.2534 19.61 72.4454 19.832C72.6374 20.048 72.8744 20.219 73.1564 20.345C73.4384 20.465 73.7624 20.525 74.1284 20.525C74.5004 20.525 74.8244 20.465 75.1004 20.345C75.3824 20.219 75.6194 20.048 75.8114 19.832C76.0034 19.61 76.1474 19.352 76.2434 19.058C76.3394 18.764 76.3874 18.446 76.3874 18.104C76.3874 17.762 76.3394 17.444 76.2434 17.15C76.1474 16.85 76.0034 16.592 75.8114 16.376C75.6194 16.154 75.3824 15.98 75.1004 15.854C74.8244 15.728 74.5004 15.665 74.1284 15.665C73.7624 15.665 73.4384 15.728 73.1564 15.854C72.8744 15.98 72.6374 16.154 72.4454 16.376C72.2534 16.592 72.1094 16.85 72.0134 17.15C71.9174 17.444 71.8694 17.762 71.8694 18.104Z" fill="#666666"/>
<path d="M82.0773 20.426L83.5623 15.773H82.7703L81.7263 19.58H81.7083L80.7363 15.773H79.8993L78.9633 19.58H78.9453L77.8923 15.773H77.0463L78.5403 20.426H79.3683L80.3043 16.727H80.3223L81.2673 20.426H82.0773Z" fill="#666666"/>
<path d="M84.4696 15.773V20.426H85.2346V17.798C85.2346 17.588 85.2616 17.396 85.3156 17.222C85.3756 17.042 85.4626 16.886 85.5766 16.754C85.6906 16.622 85.8316 16.52 85.9996 16.448C86.1736 16.376 86.3776 16.34 86.6116 16.34C86.9056 16.34 87.1366 16.424 87.3046 16.592C87.4726 16.76 87.5566 16.988 87.5566 17.276V20.426H88.3216V17.366C88.3216 17.114 88.2946 16.886 88.2406 16.682C88.1926 16.472 88.1056 16.292 87.9796 16.142C87.8536 15.992 87.6886 15.875 87.4846 15.791C87.2806 15.707 87.0256 15.665 86.7196 15.665C86.0296 15.665 85.5256 15.947 85.2076 16.511H85.1896V15.773H84.4696Z" fill="#666666"/>
<path d="M89.6956 14V20.426H90.4606V14H89.6956Z" fill="#666666"/>
<path d="M92.3837 18.104C92.3837 17.822 92.4197 17.573 92.4917 17.357C92.5697 17.135 92.6747 16.949 92.8067 16.799C92.9387 16.649 93.0917 16.535 93.2657 16.457C93.4457 16.379 93.6347 16.34 93.8327 16.34C94.0307 16.34 94.2167 16.379 94.3907 16.457C94.5707 16.535 94.7267 16.649 94.8587 16.799C94.9907 16.949 95.0927 17.135 95.1647 17.357C95.2427 17.573 95.2817 17.822 95.2817 18.104C95.2817 18.386 95.2427 18.638 95.1647 18.86C95.0927 19.076 94.9907 19.259 94.8587 19.409C94.7267 19.553 94.5707 19.664 94.3907 19.742C94.2167 19.82 94.0307 19.859 93.8327 19.859C93.6347 19.859 93.4457 19.82 93.2657 19.742C93.0917 19.664 92.9387 19.553 92.8067 19.409C92.6747 19.259 92.5697 19.076 92.4917 18.86C92.4197 18.638 92.3837 18.386 92.3837 18.104ZM91.5737 18.104C91.5737 18.446 91.6217 18.764 91.7177 19.058C91.8137 19.352 91.9577 19.61 92.1497 19.832C92.3417 20.048 92.5787 20.219 92.8607 20.345C93.1427 20.465 93.4667 20.525 93.8327 20.525C94.2047 20.525 94.5287 20.465 94.8047 20.345C95.0867 20.219 95.3237 20.048 95.5157 19.832C95.7077 19.61 95.8517 19.352 95.9477 19.058C96.0437 18.764 96.0917 18.446 96.0917 18.104C96.0917 17.762 96.0437 17.444 95.9477 17.15C95.8517 16.85 95.7077 16.592 95.5157 16.376C95.3237 16.154 95.0867 15.98 94.8047 15.854C94.5287 15.728 94.2047 15.665 93.8327 15.665C93.4667 15.665 93.1427 15.728 92.8607 15.854C92.5787 15.98 92.3417 16.154 92.1497 16.376C91.9577 16.592 91.8137 16.85 91.7177 17.15C91.6217 17.444 91.5737 17.762 91.5737 18.104Z" fill="#666666"/>
<path d="M101.296 20.408C101.164 20.486 100.981 20.525 100.747 20.525C100.549 20.525 100.39 20.471 100.27 20.363C100.156 20.249 100.099 20.066 100.099 19.814C99.8887 20.066 99.6427 20.249 99.3607 20.363C99.0847 20.471 98.7847 20.525 98.4607 20.525C98.2507 20.525 98.0497 20.501 97.8577 20.453C97.6717 20.405 97.5097 20.33 97.3717 20.228C97.2337 20.126 97.1227 19.994 97.0387 19.832C96.9607 19.664 96.9217 19.463 96.9217 19.229C96.9217 18.965 96.9667 18.749 97.0567 18.581C97.1467 18.413 97.2637 18.278 97.4077 18.176C97.5577 18.068 97.7257 17.987 97.9117 17.933C98.1037 17.879 98.2987 17.834 98.4967 17.798C98.7067 17.756 98.9047 17.726 99.0907 17.708C99.2827 17.684 99.4507 17.654 99.5947 17.618C99.7387 17.576 99.8527 17.519 99.9367 17.447C100.021 17.369 100.063 17.258 100.063 17.114C100.063 16.946 100.03 16.811 99.9637 16.709C99.9037 16.607 99.8227 16.529 99.7207 16.475C99.6247 16.421 99.5137 16.385 99.3877 16.367C99.2677 16.349 99.1477 16.34 99.0277 16.34C98.7037 16.34 98.4337 16.403 98.2177 16.529C98.0017 16.649 97.8847 16.88 97.8667 17.222H97.1017C97.1137 16.934 97.1737 16.691 97.2817 16.493C97.3897 16.295 97.5337 16.136 97.7137 16.016C97.8937 15.89 98.0977 15.8 98.3257 15.746C98.5597 15.692 98.8087 15.665 99.0727 15.665C99.2827 15.665 99.4897 15.68 99.6937 15.71C99.9037 15.74 100.093 15.803 100.261 15.899C100.429 15.989 100.564 16.118 100.666 16.286C100.768 16.454 100.819 16.673 100.819 16.943V19.337C100.819 19.517 100.828 19.649 100.846 19.733C100.87 19.817 100.942 19.859 101.062 19.859C101.128 19.859 101.206 19.844 101.296 19.814V20.408ZM100.054 18.023C99.9577 18.095 99.8317 18.149 99.6757 18.185C99.5197 18.215 99.3547 18.242 99.1807 18.266C99.0127 18.284 98.8417 18.308 98.6677 18.338C98.4937 18.362 98.3377 18.404 98.1997 18.464C98.0617 18.524 97.9477 18.611 97.8577 18.725C97.7737 18.833 97.7317 18.983 97.7317 19.175C97.7317 19.301 97.7557 19.409 97.8037 19.499C97.8577 19.583 97.9237 19.652 98.0017 19.706C98.0857 19.76 98.1817 19.799 98.2897 19.823C98.3977 19.847 98.5117 19.859 98.6317 19.859C98.8837 19.859 99.0997 19.826 99.2797 19.76C99.4597 19.688 99.6067 19.601 99.7207 19.499C99.8347 19.391 99.9187 19.277 99.9727 19.157C100.027 19.031 100.054 18.914 100.054 18.806V18.023Z" fill="#666666"/>
<path d="M102.746 18.14C102.746 17.912 102.77 17.69 102.818 17.474C102.866 17.258 102.944 17.066 103.052 16.898C103.16 16.73 103.304 16.595 103.484 16.493C103.664 16.391 103.883 16.34 104.141 16.34C104.405 16.34 104.63 16.391 104.816 16.493C105.002 16.589 105.152 16.718 105.266 16.88C105.386 17.042 105.473 17.231 105.527 17.447C105.581 17.657 105.608 17.876 105.608 18.104C105.608 18.32 105.581 18.533 105.527 18.743C105.479 18.953 105.398 19.142 105.284 19.31C105.17 19.472 105.023 19.604 104.843 19.706C104.663 19.808 104.444 19.859 104.186 19.859C103.94 19.859 103.724 19.811 103.538 19.715C103.358 19.619 103.208 19.49 103.088 19.328C102.974 19.166 102.887 18.983 102.827 18.779C102.773 18.569 102.746 18.356 102.746 18.14ZM106.346 20.426V14H105.581V16.394H105.563C105.479 16.256 105.374 16.142 105.248 16.052C105.128 15.956 104.999 15.881 104.861 15.827C104.723 15.767 104.585 15.725 104.447 15.701C104.309 15.677 104.18 15.665 104.06 15.665C103.706 15.665 103.394 15.731 103.124 15.863C102.86 15.989 102.638 16.163 102.458 16.385C102.284 16.601 102.152 16.856 102.062 17.15C101.978 17.444 101.936 17.756 101.936 18.086C101.936 18.416 101.981 18.728 102.071 19.022C102.161 19.316 102.293 19.574 102.467 19.796C102.647 20.018 102.869 20.195 103.133 20.327C103.403 20.459 103.718 20.525 104.078 20.525C104.402 20.525 104.699 20.468 104.969 20.354C105.239 20.24 105.437 20.054 105.563 19.796H105.581V20.426H106.346Z" fill="#666666"/>
<path d="M110.946 18.104C110.946 17.822 110.982 17.573 111.054 17.357C111.132 17.135 111.237 16.949 111.369 16.799C111.501 16.649 111.654 16.535 111.828 16.457C112.008 16.379 112.197 16.34 112.395 16.34C112.593 16.34 112.779 16.379 112.953 16.457C113.133 16.535 113.289 16.649 113.421 16.799C113.553 16.949 113.655 17.135 113.727 17.357C113.805 17.573 113.844 17.822 113.844 18.104C113.844 18.386 113.805 18.638 113.727 18.86C113.655 19.076 113.553 19.259 113.421 19.409C113.289 19.553 113.133 19.664 112.953 19.742C112.779 19.82 112.593 19.859 112.395 19.859C112.197 19.859 112.008 19.82 111.828 19.742C111.654 19.664 111.501 19.553 111.369 19.409C111.237 19.259 111.132 19.076 111.054 18.86C110.982 18.638 110.946 18.386 110.946 18.104ZM110.136 18.104C110.136 18.446 110.184 18.764 110.28 19.058C110.376 19.352 110.52 19.61 110.712 19.832C110.904 20.048 111.141 20.219 111.423 20.345C111.705 20.465 112.029 20.525 112.395 20.525C112.767 20.525 113.091 20.465 113.367 20.345C113.649 20.219 113.886 20.048 114.078 19.832C114.27 19.61 114.414 19.352 114.51 19.058C114.606 18.764 114.654 18.446 114.654 18.104C114.654 17.762 114.606 17.444 114.51 17.15C114.414 16.85 114.27 16.592 114.078 16.376C113.886 16.154 113.649 15.98 113.367 15.854C113.091 15.728 112.767 15.665 112.395 15.665C112.029 15.665 111.705 15.728 111.423 15.854C111.141 15.98 110.904 16.154 110.712 16.376C110.52 16.592 110.376 16.85 110.28 17.15C110.184 17.444 110.136 17.762 110.136 18.104Z" fill="#666666"/>
<path d="M115.735 15.773V20.426H116.5V17.798C116.5 17.588 116.527 17.396 116.581 17.222C116.641 17.042 116.728 16.886 116.842 16.754C116.956 16.622 117.097 16.52 117.265 16.448C117.439 16.376 117.643 16.34 117.877 16.34C118.171 16.34 118.402 16.424 118.57 16.592C118.738 16.76 118.822 16.988 118.822 17.276V20.426H119.587V17.366C119.587 17.114 119.56 16.886 119.506 16.682C119.458 16.472 119.371 16.292 119.245 16.142C119.119 15.992 118.954 15.875 118.75 15.791C118.546 15.707 118.291 15.665 117.985 15.665C117.295 15.665 116.791 15.947 116.473 16.511H116.455V15.773H115.735Z" fill="#666666"/>
<path d="M124.663 15.773V14.378H123.898V15.773H123.106V16.448H123.898V19.409C123.898 19.625 123.919 19.799 123.961 19.931C124.003 20.063 124.066 20.165 124.15 20.237C124.24 20.309 124.354 20.36 124.492 20.39C124.636 20.414 124.807 20.426 125.005 20.426H125.59V19.751H125.239C125.119 19.751 125.02 19.748 124.942 19.742C124.87 19.73 124.813 19.709 124.771 19.679C124.729 19.649 124.699 19.607 124.681 19.553C124.669 19.499 124.663 19.427 124.663 19.337V16.448H125.59V15.773H124.663Z" fill="#666666"/>
<path d="M126.62 14V20.426H127.385V17.798C127.385 17.588 127.412 17.396 127.466 17.222C127.526 17.042 127.613 16.886 127.727 16.754C127.841 16.622 127.982 16.52 128.15 16.448C128.324 16.376 128.528 16.34 128.762 16.34C129.056 16.34 129.287 16.424 129.455 16.592C129.623 16.76 129.707 16.988 129.707 17.276V20.426H130.472V17.366C130.472 17.114 130.445 16.886 130.391 16.682C130.343 16.472 130.256 16.292 130.13 16.142C130.004 15.992 129.839 15.875 129.635 15.791C129.431 15.707 129.176 15.665 128.87 15.665C128.732 15.665 128.588 15.68 128.438 15.71C128.294 15.74 128.153 15.788 128.015 15.854C127.883 15.914 127.763 15.995 127.655 16.097C127.547 16.193 127.463 16.313 127.403 16.457H127.385V14H126.62Z" fill="#666666"/>
<path d="M135.032 17.654H132.359C132.371 17.474 132.41 17.306 132.476 17.15C132.542 16.988 132.632 16.847 132.746 16.727C132.86 16.607 132.995 16.514 133.151 16.448C133.313 16.376 133.493 16.34 133.691 16.34C133.883 16.34 134.057 16.376 134.213 16.448C134.375 16.514 134.513 16.607 134.627 16.727C134.747 16.841 134.84 16.979 134.906 17.141C134.978 17.303 135.02 17.474 135.032 17.654ZM135.77 18.95H135.014C134.948 19.256 134.81 19.484 134.6 19.634C134.396 19.784 134.132 19.859 133.808 19.859C133.556 19.859 133.337 19.817 133.151 19.733C132.965 19.649 132.812 19.538 132.692 19.4C132.572 19.256 132.485 19.094 132.431 18.914C132.377 18.728 132.353 18.533 132.359 18.329H135.842C135.854 18.047 135.827 17.75 135.761 17.438C135.701 17.126 135.587 16.838 135.419 16.574C135.257 16.31 135.038 16.094 134.762 15.926C134.492 15.752 134.15 15.665 133.736 15.665C133.418 15.665 133.124 15.725 132.854 15.845C132.59 15.965 132.359 16.133 132.161 16.349C131.969 16.565 131.819 16.82 131.711 17.114C131.603 17.408 131.549 17.732 131.549 18.086C131.561 18.44 131.612 18.767 131.702 19.067C131.798 19.367 131.939 19.625 132.125 19.841C132.311 20.057 132.539 20.225 132.809 20.345C133.085 20.465 133.409 20.525 133.781 20.525C134.309 20.525 134.747 20.393 135.095 20.129C135.443 19.865 135.668 19.472 135.77 18.95Z" fill="#666666"/>
<path d="M81.9484 27.9026C84.2462 27.9026 85.7609 29.719 85.7609 32.5247C85.7609 35.3382 84.255 37.1458 81.9825 37.1458C80.8079 37.2072 79.7015 36.592 79.1339 35.5618H79.0909V40.0462H77.2325V27.9974H79.0314V29.5032H79.0656C79.6584 28.4795 80.766 27.8645 81.9484 27.9026ZM91.9132 27.9026C94.2111 27.9026 95.7257 29.719 95.7257 32.5247C95.7257 35.3382 94.2198 37.1458 91.9474 37.1458C90.7728 37.2072 89.6663 36.592 89.0988 35.5618H89.0558V40.0462H87.1974V27.9974H88.9962V29.5032H89.0304C89.6232 28.4795 90.7308 27.8645 91.9132 27.9026ZM105.255 24.426C107.879 24.426 109.678 25.8977 109.738 28.0403H107.862C107.75 26.801 106.726 26.053 105.229 26.053C103.732 26.053 102.707 26.8098 102.707 27.9114C102.707 28.7893 103.361 29.3059 104.962 29.7014L106.33 30.0373C108.878 30.6399 109.937 31.6633 109.937 33.4797C109.937 35.8029 108.086 37.258 105.143 37.258C102.389 37.258 100.529 35.8371 100.409 33.591L102.312 33.5911C102.449 34.8226 103.646 35.6311 105.28 35.6311C106.847 35.6311 107.974 34.8225 107.974 33.7122C107.974 32.7483 107.294 32.1712 105.685 31.7756L104.075 31.3879C101.795 30.8372 100.736 29.7708 100.736 28.0403C100.736 25.8977 102.604 24.426 105.255 24.426ZM120.96 27.886C123.585 27.886 125.255 29.676 125.255 32.5247C125.255 35.3812 123.594 37.1634 120.96 37.1634C118.327 37.1634 116.666 35.3812 116.666 32.5247C116.666 29.6761 118.344 27.886 120.96 27.886ZM136.009 27.886C138.514 27.886 140.089 29.6067 140.089 32.3519V32.9886H133.694V33.1009C133.635 33.7749 133.868 34.4421 134.333 34.9328C134.799 35.4234 135.454 35.6902 136.13 35.6653C137.032 35.7498 137.882 35.232 138.221 34.3919L139.985 34.3919C139.735 36.0354 138.135 37.1634 136.087 37.1634C133.453 37.1634 131.818 35.3987 131.818 32.5677C131.818 29.7278 133.462 27.886 136.009 27.886ZM113.947 25.8548V27.9974H115.669V29.469H113.947V34.4603C113.947 35.2356 114.292 35.597 115.049 35.597C115.253 35.5934 115.457 35.5791 115.66 35.554V37.0169C115.32 37.0804 114.974 37.1092 114.628 37.1028C112.795 37.1028 112.08 36.4143 112.08 34.6585V29.469H110.764V27.9974H112.08V25.8548H113.947ZM71.5948 24.6331L76.0782 37.0511H74.0392L72.9034 33.6946H68.17L67.0333 37.0511H65.0284L69.5118 24.6331H71.5948ZM130.78 27.9026C130.995 27.9019 131.208 27.9251 131.417 27.972V29.7102C131.147 29.6276 130.865 29.5897 130.582 29.5979C130.036 29.5758 129.507 29.7935 129.135 30.194C128.762 30.5945 128.584 31.1377 128.646 31.6809V37.0511H126.787V27.9974H128.56V29.5384H128.603C128.85 28.5464 129.759 27.8636 130.78 27.9026ZM120.96 29.4173C119.454 29.4173 118.56 30.5794 118.56 32.5247C118.56 34.4866 119.454 35.6312 120.96 35.6312C122.466 35.6312 123.361 34.4866 123.361 32.5247C123.361 30.5706 122.466 29.4173 120.96 29.4173ZM81.4581 29.4866C80.0382 29.4866 79.0831 30.7171 79.0831 32.5247C79.0831 34.3489 80.0382 35.5706 81.4581 35.5706C82.9034 35.5706 83.8507 34.3743 83.8507 32.5247C83.8507 30.6917 82.9034 29.4866 81.4581 29.4866ZM91.423 29.4866C90.003 29.4866 89.048 30.7171 89.048 32.5247C89.048 34.3489 90.003 35.5706 91.423 35.5706C92.8683 35.5706 93.8156 34.3743 93.8156 32.5247C93.8156 30.6917 92.8683 29.4866 91.423 29.4866ZM70.5627 26.6985H70.5109L68.6603 32.1458H72.4123L70.5627 26.6985ZM136.009 29.3919C135.398 29.3882 134.81 29.6289 134.377 30.0604C133.944 30.4919 133.702 31.0785 133.703 31.6898H138.23C138.263 31.0841 138.043 30.4918 137.621 30.0556C137.2 29.6194 136.615 29.3789 136.009 29.3919Z" fill="black"/>
</svg>
