<svg width="126" height="39" viewBox="0 0 126 39" fill="none" xmlns="http://www.w3.org/2000/svg">
<path d="M62.4 12.56V26H59.7696V17.2832L55.9872 23.5232H55.68L51.8976 17.3024V26H49.248V12.56H51.9744L55.8336 18.9152L59.6736 12.56H62.4ZM71.0483 16.4H73.6979L70.2035 26C69.7043 27.3824 69.0387 28.3808 68.2067 28.9952C67.3875 29.6224 66.3635 29.904 65.1347 29.84V27.536C65.8003 27.5488 66.3251 27.408 66.7091 27.1136C67.1059 26.8192 67.4195 26.3456 67.6499 25.6928L63.7139 16.4H66.4211L68.9171 22.8512L71.0483 16.4ZM81.3662 26.2688C79.3438 26.2688 77.6734 25.5968 76.355 24.2528C75.0366 22.9088 74.3774 21.2512 74.3774 19.28C74.3774 17.296 75.0366 15.6384 76.355 14.3072C77.6734 12.9632 79.3438 12.2912 81.3662 12.2912C82.5822 12.2912 83.7022 12.5792 84.7262 13.1552C85.763 13.7184 86.5694 14.4864 87.1454 15.4592L84.8606 16.784C84.5278 16.1824 84.0542 15.7152 83.4398 15.3824C82.8254 15.0368 82.1342 14.864 81.3662 14.864C80.0606 14.864 79.0046 15.2736 78.1982 16.0928C77.4046 16.912 77.0078 17.9744 77.0078 19.28C77.0078 20.5728 77.4046 21.6288 78.1982 22.448C79.0046 23.2672 80.0606 23.6768 81.3662 23.6768C82.1342 23.6768 82.8254 23.5104 83.4398 23.1776C84.067 22.832 84.5406 22.3648 84.8606 21.776L87.1454 23.1008C86.5694 24.0736 85.7694 24.848 84.7454 25.424C83.7214 25.9872 82.595 26.2688 81.3662 26.2688ZM91.2846 18.0512C91.515 17.4368 91.8926 16.976 92.4174 16.6688C92.955 16.3616 93.5502 16.208 94.203 16.208V18.9728C93.4478 18.8832 92.7694 19.0368 92.1678 19.4336C91.579 19.8304 91.2846 20.4896 91.2846 21.4112V26H88.8078V16.4H91.2846V18.0512ZM101.988 16.4H104.464V26H101.988V24.9248C101.386 25.8208 100.432 26.2688 99.1268 26.2688C98.0772 26.2688 97.2068 25.9168 96.5156 25.2128C95.8372 24.5088 95.498 23.536 95.498 22.2944V16.4H97.9748V21.9872C97.9748 22.6272 98.1476 23.12 98.4932 23.4656C98.8388 23.7984 99.2996 23.9648 99.8756 23.9648C100.516 23.9648 101.028 23.7664 101.412 23.3696C101.796 22.9728 101.988 22.3776 101.988 21.584V16.4ZM108.943 19.1264C108.943 19.3824 109.109 19.5936 109.442 19.76C109.787 19.9136 110.203 20.0544 110.69 20.1824C111.176 20.2976 111.663 20.4512 112.149 20.6432C112.635 20.8224 113.045 21.1296 113.378 21.5648C113.723 22 113.896 22.544 113.896 23.1968C113.896 24.1824 113.525 24.944 112.783 25.4816C112.053 26.0064 111.138 26.2688 110.037 26.2688C108.066 26.2688 106.722 25.5072 106.005 23.984L108.155 22.7744C108.437 23.6064 109.064 24.0224 110.037 24.0224C110.92 24.0224 111.362 23.7472 111.362 23.1968C111.362 22.9408 111.189 22.736 110.843 22.5824C110.511 22.416 110.101 22.2688 109.615 22.1408C109.128 22.0128 108.642 21.8528 108.155 21.6608C107.669 21.4688 107.253 21.168 106.907 20.7584C106.575 20.336 106.408 19.8112 106.408 19.184C106.408 18.2368 106.754 17.4944 107.445 16.9568C108.149 16.4064 109.019 16.1312 110.056 16.1312C110.837 16.1312 111.547 16.3104 112.187 16.6688C112.827 17.0144 113.333 17.5136 113.704 18.1664L111.592 19.3184C111.285 18.6656 110.773 18.3392 110.056 18.3392C109.736 18.3392 109.467 18.4096 109.25 18.5504C109.045 18.6912 108.943 18.8832 108.943 19.1264ZM120.827 16.1312C121.876 16.1312 122.74 16.4832 123.419 17.1872C124.11 17.8912 124.455 18.864 124.455 20.1056V26H121.979V20.4128C121.979 19.7728 121.806 19.2864 121.46 18.9536C121.115 18.608 120.654 18.4352 120.078 18.4352C119.438 18.4352 118.926 18.6336 118.542 19.0304C118.158 19.4272 117.966 20.0224 117.966 20.816V26H115.489V12.56H117.966V17.4752C118.567 16.5792 119.521 16.1312 120.827 16.1312Z" fill="black"/>
<rect width="38.4" height="38.4" rx="9.6" fill="#F32424"/>
<g clip-path="url(#clip0_224_790)">
<path d="M20.7749 16.05C21.8382 16.05 22.6999 16.925 22.6999 18.15C22.6999 20.6 20.0749 22 19.1999 22.525C18.3249 22 15.6999 20.6 15.6999 18.15C15.6999 16.925 16.5749 16.05 17.6249 16.05C18.2759 16.05 18.8499 16.4 19.1999 16.75C19.5499 16.4 20.1239 16.05 20.7749 16.05Z" fill="white"/>
</g>
<path d="M19.2 9.60002C24.5019 9.60002 28.8 13.8981 28.8 19.2C28.8 24.502 24.5019 28.8 19.2 28.8" stroke="url(#paint0_radial_224_790)" stroke-width="3.6" stroke-linecap="round"/>
<path d="M19.2 28.8C13.8981 28.8 9.60001 24.5019 9.60001 19.2C9.60001 13.8981 13.8981 9.60001 19.2 9.60001" stroke="url(#paint1_radial_224_790)" stroke-width="3.6" stroke-linecap="round"/>
<defs>
<radialGradient id="paint0_radial_224_790" cx="0" cy="0" r="1" gradientUnits="userSpaceOnUse" gradientTransform="translate(18.9 9.60002) rotate(46.4321) scale(16.9759 17.5769)">
<stop stop-color="white" stop-opacity="0"/>
<stop offset="1" stop-color="white"/>
</radialGradient>
<radialGradient id="paint1_radial_224_790" cx="0" cy="0" r="1" gradientUnits="userSpaceOnUse" gradientTransform="translate(19.5 28.8) rotate(-133.568) scale(16.9759 17.5769)">
<stop stop-color="white" stop-opacity="0"/>
<stop offset="1" stop-color="white"/>
</radialGradient>
<clipPath id="clip0_224_790">
<rect width="8.4" height="8.4" fill="white" transform="translate(15 15)"/>
</clipPath>
</defs>
</svg>
