<svg width="176" height="54" viewBox="0 0 176 54" fill="none" xmlns="http://www.w3.org/2000/svg">
<rect width="176" height="54" rx="20" fill="#260202"/>
<path fill-rule="evenodd" clip-rule="evenodd" d="M31.462 13.3968C31.171 13.7048 31 14.1818 31 14.8008V36.8988C31 37.5178 31.171 37.9948 31.462 38.3028L31.536 38.3748L43.915 25.9958V25.7038L31.536 13.3248L31.462 13.3968Z" fill="#00D7FE"/>
<path d="M48.04 30.1238L43.915 25.9958V25.7038L48.042 21.5768L53.024 24.4068C54.42 25.2008 54.42 26.4988 53.024 27.2918L48.135 30.0698L48.04 30.1238Z" fill="white"/>
<path fill-rule="evenodd" clip-rule="evenodd" d="M48.04 30.1238L43.915 25.9958V25.7038L48.042 21.5768L53.024 24.4068C54.42 25.2008 54.42 26.4988 53.024 27.2918L48.135 30.0698L48.04 30.1238Z" fill="url(#paint0_linear_224_935)"/>
<path d="M48.135 30.0698L43.915 25.8498L31.462 38.3028C31.923 38.7898 32.683 38.8498 33.539 38.3638L48.135 30.0698Z" fill="white"/>
<path fill-rule="evenodd" clip-rule="evenodd" d="M48.135 30.0698L43.915 25.8498L31.462 38.3028C31.923 38.7898 32.683 38.8498 33.539 38.3638L48.135 30.0698Z" fill="url(#paint1_linear_224_935)"/>
<path d="M48.135 21.6298L33.539 13.3358C32.683 12.8498 31.923 12.9098 31.462 13.3968L43.915 25.8498L48.135 21.6298Z" fill="white"/>
<path fill-rule="evenodd" clip-rule="evenodd" d="M48.135 21.6298L33.539 13.3358C32.683 12.8498 31.923 12.9098 31.462 13.3968L43.915 25.8498L48.135 21.6298Z" fill="url(#paint2_linear_224_935)"/>
<path fill-rule="evenodd" clip-rule="evenodd" d="M125.921 36.8028H127.787V24.3018H125.921V36.8028ZM142.728 28.8048L140.589 34.2248H140.525L138.305 28.8048H136.295L139.624 36.3798L137.726 40.5938H139.673L144.803 28.8048H142.728ZM132.146 35.3828C131.534 35.3828 130.682 35.0778 130.682 34.3218C130.682 33.3568 131.744 32.9868 132.66 32.9868C133.481 32.9868 133.866 33.1638 134.365 33.4048C134.22 34.5628 133.223 35.3828 132.146 35.3828ZM132.371 28.5318C131.02 28.5318 129.621 29.1268 129.042 30.4458L130.698 31.1368C131.052 30.4458 131.711 30.2198 132.403 30.2198C133.368 30.2198 134.349 30.7988 134.365 31.8288V31.9568C134.027 31.7638 133.304 31.4748 132.419 31.4748C130.634 31.4748 128.816 32.4558 128.816 34.2888C128.816 35.9618 130.28 37.0398 131.92 37.0398C133.175 37.0398 133.866 36.4768 134.301 35.8168H134.365V36.7818H136.166V31.9898C136.166 29.7698 134.51 28.5318 132.371 28.5318ZM120.839 30.3268H118.185V26.0418H120.839C122.234 26.0418 123.026 27.1968 123.026 28.1838C123.026 29.1528 122.234 30.3268 120.839 30.3268ZM120.791 24.3018H116.32V36.8028H118.185V32.0668H120.791C122.859 32.0668 124.892 30.5688 124.892 28.1838C124.892 25.7988 122.859 24.3018 120.791 24.3018ZM96.41 35.3848C95.121 35.3848 94.042 34.3058 94.042 32.8238C94.042 31.3258 95.121 30.2298 96.41 30.2298C97.683 30.2298 98.681 31.3258 98.681 32.8238C98.681 34.3058 97.683 35.3848 96.41 35.3848ZM98.552 29.5048H98.488C98.069 29.0058 97.264 28.5548 96.249 28.5548C94.122 28.5548 92.173 30.4228 92.173 32.8238C92.173 35.2078 94.122 37.0608 96.249 37.0608C97.264 37.0608 98.069 36.6098 98.488 36.0938H98.552V36.7058C98.552 38.3338 97.683 39.2038 96.281 39.2038C95.137 39.2038 94.428 38.3818 94.138 37.6888L92.511 38.3658C92.978 39.4938 94.219 40.8788 96.281 40.8788C98.472 40.8788 100.325 39.5898 100.325 36.4488V28.8118H98.552V29.5048ZM101.614 36.8028H103.483V24.3008H101.614V36.8028ZM106.237 32.6788C106.189 31.0358 107.51 30.1978 108.46 30.1978C109.202 30.1978 109.83 30.5678 110.039 31.0998L106.237 32.6788ZM112.037 31.2608C111.683 30.3108 110.603 28.5548 108.396 28.5548C106.205 28.5548 104.385 30.2778 104.385 32.8078C104.385 35.1918 106.189 37.0608 108.605 37.0608C110.555 37.0608 111.683 35.8688 112.15 35.1758L110.7 34.2088C110.217 34.9178 109.556 35.3848 108.605 35.3848C107.655 35.3848 106.978 34.9498 106.543 34.0968L112.23 31.7448L112.037 31.2608ZM66.729 29.8598V31.6638H71.046C70.917 32.6788 70.579 33.4198 70.064 33.9358C69.435 34.5638 68.452 35.2558 66.729 35.2558C64.071 35.2558 61.992 33.1138 61.992 30.4558C61.992 27.7968 64.071 25.6548 66.729 25.6548C68.163 25.6548 69.21 26.2188 69.983 26.9438L71.256 25.6708C70.176 24.6398 68.743 23.8498 66.729 23.8498C63.088 23.8498 60.027 26.8148 60.027 30.4558C60.027 34.0968 63.088 37.0608 66.729 37.0608C68.694 37.0608 70.176 36.4168 71.336 35.2078C72.528 34.0158 72.899 32.3408 72.899 30.9868C72.899 30.5678 72.867 30.1818 72.802 29.8598H66.729ZM77.808 35.3848C76.519 35.3848 75.407 34.3218 75.407 32.8078C75.407 31.2768 76.519 30.2298 77.808 30.2298C79.096 30.2298 80.208 31.2768 80.208 32.8078C80.208 34.3218 79.096 35.3848 77.808 35.3848ZM77.808 28.5548C75.455 28.5548 73.538 30.3428 73.538 32.8078C73.538 35.2558 75.455 37.0608 77.808 37.0608C80.16 37.0608 82.077 35.2558 82.077 32.8078C82.077 30.3428 80.16 28.5548 77.808 28.5548ZM87.121 35.3848C85.832 35.3848 84.72 34.3218 84.72 32.8078C84.72 31.2768 85.832 30.2298 87.121 30.2298C88.41 30.2298 89.521 31.2768 89.521 32.8078C89.521 34.3218 88.41 35.3848 87.121 35.3848ZM87.121 28.5548C84.769 28.5548 82.852 30.3428 82.852 32.8078C82.852 35.2558 84.769 37.0608 87.121 37.0608C89.473 37.0608 91.39 35.2558 91.39 32.8078C91.39 30.3428 89.473 28.5548 87.121 28.5548Z" fill="#FFFFFE"/>
<path d="M65.4938 19.0104C65.277 19.321 64.9738 19.5539 64.5841 19.7092C64.1974 19.8615 63.7462 19.9377 63.2306 19.9377C62.7091 19.9377 62.2462 19.8161 61.8419 19.5729C61.4377 19.3268 61.1242 18.9782 60.9015 18.527C60.6818 18.0759 60.569 17.5529 60.5631 16.9582V16.4001C60.5631 15.4362 60.7873 14.6891 61.2355 14.1589C61.6867 13.6286 62.3195 13.3635 63.1339 13.3635C63.8019 13.3635 64.3395 13.5349 64.7467 13.8776C65.154 14.2175 65.403 14.7009 65.4938 15.3278H64.6501C64.4919 14.4811 63.9879 14.0578 63.1383 14.0578C62.5729 14.0578 62.1437 14.257 61.8507 14.6555C61.5607 15.051 61.4142 15.6252 61.4113 16.3781V16.9011C61.4113 17.6188 61.5753 18.1901 61.9035 18.6149C62.2316 19.0368 62.6754 19.2477 63.235 19.2477C63.5514 19.2477 63.8283 19.2126 64.0656 19.1423C64.3029 19.072 64.4992 18.9533 64.6544 18.7863V17.3493H63.1735V16.6638H65.4938V19.0104Z" fill="white"/>
<path d="M70.2511 16.8923H67.4782V19.1599H70.6994V19.8498H66.6344V13.4514H70.6554V14.1457H67.4782V16.2023H70.2511V16.8923Z" fill="white"/>
<path d="M75.9885 14.1457H73.9318V19.8498H73.0925V14.1457H71.0402V13.4514H75.9885V14.1457Z" fill="white"/>
<path d="M79.3596 19.8498H78.5159V13.4514H79.3596V19.8498Z" fill="white"/>
<path d="M84.9255 14.1457H82.8689V19.8498H82.0295V14.1457H79.9773V13.4514H84.9255V14.1457Z" fill="white"/>
<path d="M92.3133 16.8571C92.3133 17.4841 92.2078 18.0319 91.9969 18.5007C91.7859 18.9665 91.4871 19.3224 91.1004 19.5685C90.7137 19.8146 90.2625 19.9377 89.7469 19.9377C89.243 19.9377 88.7962 19.8146 88.4065 19.5685C88.0169 19.3195 87.7137 18.9665 87.4969 18.5095C87.283 18.0495 87.1731 17.5178 87.1673 16.9142V16.4528C87.1673 15.8376 87.2742 15.2941 87.4881 14.8224C87.702 14.3508 88.0037 13.9904 88.3934 13.7414C88.7859 13.4894 89.2342 13.3635 89.7381 13.3635C90.2508 13.3635 90.702 13.488 91.0916 13.737C91.4842 13.9831 91.7859 14.342 91.9969 14.8137C92.2078 15.2824 92.3133 15.8288 92.3133 16.4528V16.8571ZM91.4739 16.444C91.4739 15.6852 91.3216 15.1037 91.0169 14.6994C90.7122 14.2922 90.2859 14.0886 89.7381 14.0886C89.2049 14.0886 88.7845 14.2922 88.4769 14.6994C88.1722 15.1037 88.0154 15.6662 88.0066 16.3869V16.8571C88.0066 17.5925 88.1604 18.1711 88.4681 18.593C88.7786 19.0119 89.2049 19.2214 89.7469 19.2214C90.2918 19.2214 90.7137 19.0236 91.0125 18.6281C91.3113 18.2297 91.4651 17.6599 91.4739 16.9186V16.444Z" fill="white"/>
<path d="M98.2264 19.8498H97.3782L94.157 14.9191V19.8498H93.3089V13.4514H94.157L97.387 18.404V13.4514H98.2264V19.8498Z" fill="white"/>
<defs>
<linearGradient id="paint0_linear_224_935" x1="52.1158" y1="25.8501" x2="43.915" y2="25.8501" gradientUnits="userSpaceOnUse">
<stop stop-color="#FFBC00"/>
<stop offset="1" stop-color="#FFDA03"/>
</linearGradient>
<linearGradient id="paint1_linear_224_935" x1="45.8416" y1="29.8206" x2="35.1381" y2="38.6431" gradientUnits="userSpaceOnUse">
<stop stop-color="#E22652"/>
<stop offset="1" stop-color="#FF3A44"/>
</linearGradient>
<linearGradient id="paint2_linear_224_935" x1="33.3477" y1="14.8959" x2="40.4839" y2="21.1709" gradientUnits="userSpaceOnUse">
<stop stop-color="#0ED574"/>
<stop offset="1" stop-color="#07F076"/>
</linearGradient>
</defs>
</svg>
