<svg width="120" height="120" viewBox="0 0 120 120" fill="none" xmlns="http://www.w3.org/2000/svg">
<circle cx="60" cy="60" r="60" fill="#FEF4F4"/>
<path d="M46.5 62.25C40.29 62.25 35.25 67.2675 35.25 73.5C35.25 79.7325 40.29 84.75 46.5 84.75C52.71 84.75 57.75 79.71 57.75 73.5C57.75 67.29 52.7325 62.25 46.5 62.25ZM41.91 68.91H46.5C47.355 68.91 48.03 69.6075 48.03 70.44C48.03 71.2725 47.3325 71.97 46.5 71.97H41.91C41.055 71.97 40.38 71.2725 40.38 70.44C40.38 69.6075 41.055 68.91 41.91 68.91ZM51.09 78.09H41.8875C41.0325 78.09 40.3575 77.3925 40.3575 76.56C40.3575 75.7275 41.055 75.03 41.8875 75.03H51.09C51.945 75.03 52.62 75.7275 52.62 76.56C52.62 77.3925 51.945 78.09 51.09 78.09Z" fill="#F54A4A"/>
<path opacity="0.4" d="M71.25 39.75H48.75C42 39.75 37.5 43.125 37.5 51V58.065C37.5 59.7075 39.1875 60.7425 40.695 60.09C43.17 59.01 45.9825 58.605 48.93 59.0775C54.825 60.045 59.64 64.7025 60.8325 70.5525C61.17 72.2625 61.215 73.9275 60.99 75.525C60.81 76.8525 61.89 78.0225 63.2175 78.0225H71.25C78 78.0225 82.5 74.6475 82.5 66.7725V51.0225C82.5 43.125 78 39.75 71.25 39.75Z" fill="#F54A4A"/>
<path d="M60 59.7075C58.11 59.7075 56.1975 59.1225 54.735 57.93L47.6925 52.305C46.9725 51.72 46.8375 50.6625 47.4225 49.9425C48.0075 49.2225 49.065 49.0875 49.785 49.6725L56.8275 55.2975C58.5375 56.67 61.44 56.67 63.15 55.2975L70.1925 49.6725C70.9125 49.0875 71.9925 49.2 72.555 49.9425C73.14 50.6625 73.0275 51.7425 72.285 52.305L65.2425 57.93C63.8025 59.1225 61.89 59.7075 60 59.7075Z" fill="#F54A4A"/>
</svg>
